<?xml version="1.0" standalone="no"?><!DOCTYPE svg PUBLIC "-//W3C//DTD SVG 1.1//EN" "http://www.w3.org/Graphics/SVG/1.1/DTD/svg11.dtd"><svg class="icon" width="200px" height="200.00px" viewBox="0 0 1024 1024" version="1.1" xmlns="http://www.w3.org/2000/svg"><path fill="#333333" d="M546.8 478h0.7c12-0.4 21.4-10.4 21.1-22.4l-9.4-318.4c-0.4-11.8-10-21.1-21.8-21.1h-284c-11.8 0-21.4 9.3-21.8 21.1l-17.8 605.3h-64c-11.2 0-20.5 8.5-21.6 19.6L116 883.9c-0.6 6.1 1.4 12.2 5.5 16.8 4.1 4.5 10 7.2 16.1 7.2h315.7c12 0 21.8-9.7 21.8-21.8s-9.7-21.8-21.8-21.8H161.7l7.8-78.3h65.4c11.8 0 21.4-9.3 21.8-21.1l17.8-605.3h241.7l8.8 297.3c0.4 11.8 10 21.1 21.8 21.1z"  /><path fill="#333333" d="M898.1 805.9c-1.4-10.9-10.6-19-21.6-19h-43.9l-14.4-232.8c-0.7-11.5-10.2-20.4-21.7-20.4H565.6c-11.6 0-21.2 9.1-21.7 20.7L527.3 885c-0.3 5.9 1.9 11.8 6 16.1 4.1 4.3 9.8 6.8 15.7 6.8h337.3c6.3 0 12.2-2.7 16.3-7.4 4.1-4.7 6.1-10.9 5.3-17.1l-9.8-77.5z m-326.2 58.4l14.4-287.1H776L790.4 810c0.7 11.5 10.2 20.4 21.7 20.4h45.2l4.3 33.9H571.9z"  /><path fill="#333333" d="M337.4 272.1h116c10.4 0 18.9-8.4 18.9-18.8s-8.4-18.8-18.9-18.8h-116c-10.4 0-18.9 8.4-18.9 18.8s8.5 18.8 18.9 18.8z"  /><path fill="#333333" d="M304.1 354.8c0 10.4 8.4 18.8 18.9 18.8h145c10.4 0 18.9-8.4 18.9-18.8S478.5 336 468 336H323c-10.5-0.1-18.9 8.4-18.9 18.8z"  /><path fill="#333333" d="M482.4 434.6h-174c-12 0-21.8 9.7-21.8 21.8s9.7 21.8 21.8 21.8h174c12 0 21.8-9.7 21.8-21.8s-9.8-21.8-21.8-21.8z"  /><path fill="#333333" d="M680.8 612.1c-12 0-21.8 9.7-21.8 21.8v174c0 12 9.7 21.8 21.8 21.8s21.8-9.7 21.8-21.8v-174c-0.1-12.1-9.8-21.8-21.8-21.8z"  /></svg>